%
M48
M72
T01C0.02400
T02C0.03200
T03C0.03800
T04C0.03937
T05C0.04000
T06C0.13000
%
T01
X88478Y96266
X122178Y129965
X131806Y145611
X139027Y138390
X112549Y176903
X101717Y181717
X113753Y196160
X128195Y196160
X145045Y196160
X155877Y206992
X195594Y150425
X189576Y72195
X183558Y15628
T02
X156000Y11000
X156000Y21000
X156000Y31000
X156000Y41000
X156000Y51000
X156000Y61000
X156000Y71000
X156000Y81000
X156000Y91000
X156000Y101000
X156000Y111000
X156000Y121000
X156000Y131000
X156000Y141000
X96000Y141000
X96000Y131000
X96000Y121000
X96000Y111000
X96000Y101000
X96000Y91000
X96000Y81000
X96000Y71000
X96000Y61000
X96000Y51000
X96000Y41000
X96000Y31000
X96000Y21000
X96000Y11000
X96000Y231000
X86000Y231000
X156000Y231000
X166000Y231000
T03
X161000Y216000
X151000Y216000
X141000Y216000
X131000Y216000
X121000Y216000
X111000Y216000
X101000Y216000
X91000Y216000
X81000Y216000
X71000Y216000
X61000Y216000
X61000Y206000
X61000Y196000
X61000Y186000
X61000Y176000
X61000Y166000
X61000Y156000
X51000Y156000
X41000Y156000
X31000Y156000
X21000Y156000
X11000Y156000
X11000Y176000
X11000Y186000
X21000Y186000
X21000Y176000
X31000Y176000
X31000Y186000
X41000Y186000
X41000Y176000
X51000Y176000
X51000Y186000
X71000Y186000
X71000Y176000
X81000Y176000
X81000Y186000
X91000Y186000
X91000Y176000
X91000Y156000
X81000Y156000
X71000Y156000
X101000Y156000
X111000Y156000
X121000Y156000
X131000Y156000
X141000Y156000
X151000Y156000
X161000Y156000
X171000Y156000
X181000Y156000
X191000Y156000
X191000Y166000
X201000Y166000
X201000Y156000
X211000Y156000
X211000Y166000
X221000Y156000
X231000Y156000
X231000Y166000
X241000Y156000
X216000Y203900
X206000Y203900
X196000Y203900
X186000Y203900
X176000Y203900
X171000Y216000
X181000Y216000
X191000Y216000
X201000Y216000
X211000Y216000
X221000Y216000
X231000Y216000
X241000Y216000
X181000Y186000
X181000Y176000
X171000Y176000
X171000Y186000
X161000Y186000
X161000Y176000
X151000Y176000
X151000Y186000
X51000Y216000
X41000Y216000
X31000Y216000
X21000Y216000
X11000Y216000
T04
X63500Y31000
X63500Y41000
X63500Y51000
X63500Y61000
X63500Y71000
X63500Y81000
X63500Y91000
X63500Y101000
X63500Y111000
X63500Y121000
X108500Y121000
X108500Y111000
X108500Y101000
X108500Y91000
X108500Y81000
X108500Y71000
X108500Y61000
X108500Y51000
X108500Y41000
X108500Y31000
X138500Y31000
X138500Y41000
X138500Y51000
X138500Y61000
X138500Y71000
X138500Y81000
X138500Y91000
X138500Y101000
X138500Y111000
X138500Y121000
X183500Y121000
X183500Y111000
X183500Y101000
X183500Y91000
X183500Y81000
X183500Y71000
X183500Y61000
X183500Y51000
X183500Y41000
X183500Y31000
T05
X211000Y141000
X221000Y141000
X231000Y141000
X241000Y141000
X241000Y231000
X136000Y231000
X126000Y231000
X116000Y231000
X36000Y141000
X26000Y141000
X16000Y141000
X11000Y231000
T06
X126000Y290000
M30
