G75*
%MOIN*%
%OFA0B0*%
%FSLAX25Y25*%
%IPPOS*%
%LPD*%
%AMOC8*
5,1,8,0,0,1.08239X$1,22.5*
%
%ADD10C,0.00000*%
%ADD11OC8,0.06000*%
%ADD12OC8,0.05200*%
%ADD13C,0.06000*%
%ADD14C,0.05200*%
%ADD15C,0.05800*%
%ADD16R,0.05937X0.05937*%
%ADD17C,0.05937*%
%ADD18C,0.01600*%
%ADD19C,0.04000*%
D10*
X0046000Y0001000D02*
X0046000Y0131000D01*
X0001000Y0131000D01*
X0001000Y0240961D01*
X0256000Y0240961D01*
X0256000Y0131000D01*
X0206000Y0131000D01*
X0206000Y0001000D01*
X0046000Y0001000D01*
X0119500Y0290000D02*
X0119502Y0290161D01*
X0119508Y0290321D01*
X0119518Y0290482D01*
X0119532Y0290642D01*
X0119550Y0290802D01*
X0119571Y0290961D01*
X0119597Y0291120D01*
X0119627Y0291278D01*
X0119660Y0291435D01*
X0119698Y0291592D01*
X0119739Y0291747D01*
X0119784Y0291901D01*
X0119833Y0292054D01*
X0119886Y0292206D01*
X0119942Y0292357D01*
X0120003Y0292506D01*
X0120066Y0292654D01*
X0120134Y0292800D01*
X0120205Y0292944D01*
X0120279Y0293086D01*
X0120357Y0293227D01*
X0120439Y0293365D01*
X0120524Y0293502D01*
X0120612Y0293636D01*
X0120704Y0293768D01*
X0120799Y0293898D01*
X0120897Y0294026D01*
X0120998Y0294151D01*
X0121102Y0294273D01*
X0121209Y0294393D01*
X0121319Y0294510D01*
X0121432Y0294625D01*
X0121548Y0294736D01*
X0121667Y0294845D01*
X0121788Y0294950D01*
X0121912Y0295053D01*
X0122038Y0295153D01*
X0122166Y0295249D01*
X0122297Y0295342D01*
X0122431Y0295432D01*
X0122566Y0295519D01*
X0122704Y0295602D01*
X0122843Y0295682D01*
X0122985Y0295758D01*
X0123128Y0295831D01*
X0123273Y0295900D01*
X0123420Y0295966D01*
X0123568Y0296028D01*
X0123718Y0296086D01*
X0123869Y0296141D01*
X0124022Y0296192D01*
X0124176Y0296239D01*
X0124331Y0296282D01*
X0124487Y0296321D01*
X0124643Y0296357D01*
X0124801Y0296388D01*
X0124959Y0296416D01*
X0125118Y0296440D01*
X0125278Y0296460D01*
X0125438Y0296476D01*
X0125598Y0296488D01*
X0125759Y0296496D01*
X0125920Y0296500D01*
X0126080Y0296500D01*
X0126241Y0296496D01*
X0126402Y0296488D01*
X0126562Y0296476D01*
X0126722Y0296460D01*
X0126882Y0296440D01*
X0127041Y0296416D01*
X0127199Y0296388D01*
X0127357Y0296357D01*
X0127513Y0296321D01*
X0127669Y0296282D01*
X0127824Y0296239D01*
X0127978Y0296192D01*
X0128131Y0296141D01*
X0128282Y0296086D01*
X0128432Y0296028D01*
X0128580Y0295966D01*
X0128727Y0295900D01*
X0128872Y0295831D01*
X0129015Y0295758D01*
X0129157Y0295682D01*
X0129296Y0295602D01*
X0129434Y0295519D01*
X0129569Y0295432D01*
X0129703Y0295342D01*
X0129834Y0295249D01*
X0129962Y0295153D01*
X0130088Y0295053D01*
X0130212Y0294950D01*
X0130333Y0294845D01*
X0130452Y0294736D01*
X0130568Y0294625D01*
X0130681Y0294510D01*
X0130791Y0294393D01*
X0130898Y0294273D01*
X0131002Y0294151D01*
X0131103Y0294026D01*
X0131201Y0293898D01*
X0131296Y0293768D01*
X0131388Y0293636D01*
X0131476Y0293502D01*
X0131561Y0293365D01*
X0131643Y0293227D01*
X0131721Y0293086D01*
X0131795Y0292944D01*
X0131866Y0292800D01*
X0131934Y0292654D01*
X0131997Y0292506D01*
X0132058Y0292357D01*
X0132114Y0292206D01*
X0132167Y0292054D01*
X0132216Y0291901D01*
X0132261Y0291747D01*
X0132302Y0291592D01*
X0132340Y0291435D01*
X0132373Y0291278D01*
X0132403Y0291120D01*
X0132429Y0290961D01*
X0132450Y0290802D01*
X0132468Y0290642D01*
X0132482Y0290482D01*
X0132492Y0290321D01*
X0132498Y0290161D01*
X0132500Y0290000D01*
X0132498Y0289839D01*
X0132492Y0289679D01*
X0132482Y0289518D01*
X0132468Y0289358D01*
X0132450Y0289198D01*
X0132429Y0289039D01*
X0132403Y0288880D01*
X0132373Y0288722D01*
X0132340Y0288565D01*
X0132302Y0288408D01*
X0132261Y0288253D01*
X0132216Y0288099D01*
X0132167Y0287946D01*
X0132114Y0287794D01*
X0132058Y0287643D01*
X0131997Y0287494D01*
X0131934Y0287346D01*
X0131866Y0287200D01*
X0131795Y0287056D01*
X0131721Y0286914D01*
X0131643Y0286773D01*
X0131561Y0286635D01*
X0131476Y0286498D01*
X0131388Y0286364D01*
X0131296Y0286232D01*
X0131201Y0286102D01*
X0131103Y0285974D01*
X0131002Y0285849D01*
X0130898Y0285727D01*
X0130791Y0285607D01*
X0130681Y0285490D01*
X0130568Y0285375D01*
X0130452Y0285264D01*
X0130333Y0285155D01*
X0130212Y0285050D01*
X0130088Y0284947D01*
X0129962Y0284847D01*
X0129834Y0284751D01*
X0129703Y0284658D01*
X0129569Y0284568D01*
X0129434Y0284481D01*
X0129296Y0284398D01*
X0129157Y0284318D01*
X0129015Y0284242D01*
X0128872Y0284169D01*
X0128727Y0284100D01*
X0128580Y0284034D01*
X0128432Y0283972D01*
X0128282Y0283914D01*
X0128131Y0283859D01*
X0127978Y0283808D01*
X0127824Y0283761D01*
X0127669Y0283718D01*
X0127513Y0283679D01*
X0127357Y0283643D01*
X0127199Y0283612D01*
X0127041Y0283584D01*
X0126882Y0283560D01*
X0126722Y0283540D01*
X0126562Y0283524D01*
X0126402Y0283512D01*
X0126241Y0283504D01*
X0126080Y0283500D01*
X0125920Y0283500D01*
X0125759Y0283504D01*
X0125598Y0283512D01*
X0125438Y0283524D01*
X0125278Y0283540D01*
X0125118Y0283560D01*
X0124959Y0283584D01*
X0124801Y0283612D01*
X0124643Y0283643D01*
X0124487Y0283679D01*
X0124331Y0283718D01*
X0124176Y0283761D01*
X0124022Y0283808D01*
X0123869Y0283859D01*
X0123718Y0283914D01*
X0123568Y0283972D01*
X0123420Y0284034D01*
X0123273Y0284100D01*
X0123128Y0284169D01*
X0122985Y0284242D01*
X0122843Y0284318D01*
X0122704Y0284398D01*
X0122566Y0284481D01*
X0122431Y0284568D01*
X0122297Y0284658D01*
X0122166Y0284751D01*
X0122038Y0284847D01*
X0121912Y0284947D01*
X0121788Y0285050D01*
X0121667Y0285155D01*
X0121548Y0285264D01*
X0121432Y0285375D01*
X0121319Y0285490D01*
X0121209Y0285607D01*
X0121102Y0285727D01*
X0120998Y0285849D01*
X0120897Y0285974D01*
X0120799Y0286102D01*
X0120704Y0286232D01*
X0120612Y0286364D01*
X0120524Y0286498D01*
X0120439Y0286635D01*
X0120357Y0286773D01*
X0120279Y0286914D01*
X0120205Y0287056D01*
X0120134Y0287200D01*
X0120066Y0287346D01*
X0120003Y0287494D01*
X0119942Y0287643D01*
X0119886Y0287794D01*
X0119833Y0287946D01*
X0119784Y0288099D01*
X0119739Y0288253D01*
X0119698Y0288408D01*
X0119660Y0288565D01*
X0119627Y0288722D01*
X0119597Y0288880D01*
X0119571Y0289039D01*
X0119550Y0289198D01*
X0119532Y0289358D01*
X0119518Y0289518D01*
X0119508Y0289679D01*
X0119502Y0289839D01*
X0119500Y0290000D01*
D11*
X0011000Y0231000D03*
X0241000Y0231000D03*
D12*
X0166000Y0231000D03*
X0156000Y0231000D03*
X0096000Y0231000D03*
X0086000Y0231000D03*
D13*
X0116000Y0228000D02*
X0116000Y0234000D01*
X0126000Y0234000D02*
X0126000Y0228000D01*
X0136000Y0228000D02*
X0136000Y0234000D01*
X0211000Y0144000D02*
X0211000Y0138000D01*
X0221000Y0138000D02*
X0221000Y0144000D01*
X0231000Y0144000D02*
X0231000Y0138000D01*
X0241000Y0138000D02*
X0241000Y0144000D01*
X0036000Y0144000D02*
X0036000Y0138000D01*
X0026000Y0138000D02*
X0026000Y0144000D01*
X0016000Y0144000D02*
X0016000Y0138000D01*
D14*
X0093400Y0141000D02*
X0098600Y0141000D01*
X0098600Y0131000D02*
X0093400Y0131000D01*
X0093400Y0121000D02*
X0098600Y0121000D01*
X0098600Y0111000D02*
X0093400Y0111000D01*
X0093400Y0101000D02*
X0098600Y0101000D01*
X0098600Y0091000D02*
X0093400Y0091000D01*
X0093400Y0081000D02*
X0098600Y0081000D01*
X0098600Y0071000D02*
X0093400Y0071000D01*
X0093400Y0061000D02*
X0098600Y0061000D01*
X0098600Y0051000D02*
X0093400Y0051000D01*
X0093400Y0041000D02*
X0098600Y0041000D01*
X0098600Y0031000D02*
X0093400Y0031000D01*
X0093400Y0021000D02*
X0098600Y0021000D01*
X0098600Y0011000D02*
X0093400Y0011000D01*
X0153400Y0011000D02*
X0158600Y0011000D01*
X0158600Y0021000D02*
X0153400Y0021000D01*
X0153400Y0031000D02*
X0158600Y0031000D01*
X0158600Y0041000D02*
X0153400Y0041000D01*
X0153400Y0051000D02*
X0158600Y0051000D01*
X0158600Y0061000D02*
X0153400Y0061000D01*
X0153400Y0071000D02*
X0158600Y0071000D01*
X0158600Y0081000D02*
X0153400Y0081000D01*
X0153400Y0091000D02*
X0158600Y0091000D01*
X0158600Y0101000D02*
X0153400Y0101000D01*
X0153400Y0111000D02*
X0158600Y0111000D01*
X0158600Y0121000D02*
X0153400Y0121000D01*
X0153400Y0131000D02*
X0158600Y0131000D01*
X0158600Y0141000D02*
X0153400Y0141000D01*
D15*
X0151000Y0156000D03*
X0141000Y0156000D03*
X0131000Y0156000D03*
X0121000Y0156000D03*
X0111000Y0156000D03*
X0101000Y0156000D03*
X0091000Y0156000D03*
X0081000Y0156000D03*
X0071000Y0156000D03*
X0061000Y0156000D03*
X0061000Y0166000D03*
X0061000Y0176000D03*
X0061000Y0186000D03*
X0061000Y0196000D03*
X0061000Y0206000D03*
X0061000Y0216000D03*
X0051000Y0216000D03*
X0041000Y0216000D03*
X0031000Y0216000D03*
X0021000Y0216000D03*
X0011000Y0216000D03*
X0011000Y0186000D03*
X0011000Y0176000D03*
X0021000Y0176000D03*
X0021000Y0186000D03*
X0031000Y0186000D03*
X0031000Y0176000D03*
X0041000Y0176000D03*
X0041000Y0186000D03*
X0051000Y0186000D03*
X0051000Y0176000D03*
X0051000Y0156000D03*
X0041000Y0156000D03*
X0031000Y0156000D03*
X0021000Y0156000D03*
X0011000Y0156000D03*
X0071000Y0176000D03*
X0071000Y0186000D03*
X0081000Y0186000D03*
X0081000Y0176000D03*
X0091000Y0176000D03*
X0091000Y0186000D03*
X0091000Y0216000D03*
X0081000Y0216000D03*
X0071000Y0216000D03*
X0101000Y0216000D03*
X0111000Y0216000D03*
X0121000Y0216000D03*
X0131000Y0216000D03*
X0141000Y0216000D03*
X0151000Y0216000D03*
X0161000Y0216000D03*
X0171000Y0216000D03*
X0181000Y0216000D03*
X0191000Y0216000D03*
X0201000Y0216000D03*
X0211000Y0216000D03*
X0221000Y0216000D03*
X0231000Y0216000D03*
X0241000Y0216000D03*
X0216000Y0203900D03*
X0206000Y0203900D03*
X0196000Y0203900D03*
X0186000Y0203900D03*
X0176000Y0203900D03*
X0171000Y0186000D03*
X0171000Y0176000D03*
X0181000Y0176000D03*
X0181000Y0186000D03*
X0161000Y0186000D03*
X0161000Y0176000D03*
X0151000Y0176000D03*
X0151000Y0186000D03*
X0161000Y0156000D03*
X0171000Y0156000D03*
X0181000Y0156000D03*
X0191000Y0156000D03*
X0191000Y0166000D03*
X0201000Y0166000D03*
X0201000Y0156000D03*
X0211000Y0156000D03*
X0211000Y0166000D03*
X0221000Y0156000D03*
X0231000Y0156000D03*
X0231000Y0166000D03*
X0241000Y0156000D03*
D16*
X0183500Y0031000D03*
X0138500Y0031000D03*
X0108500Y0121000D03*
X0063500Y0121000D03*
D17*
X0063500Y0111000D03*
X0063500Y0101000D03*
X0063500Y0091000D03*
X0063500Y0081000D03*
X0063500Y0071000D03*
X0063500Y0061000D03*
X0063500Y0051000D03*
X0063500Y0041000D03*
X0063500Y0031000D03*
X0108500Y0031000D03*
X0108500Y0041000D03*
X0108500Y0051000D03*
X0108500Y0061000D03*
X0108500Y0071000D03*
X0108500Y0081000D03*
X0108500Y0091000D03*
X0108500Y0101000D03*
X0108500Y0111000D03*
X0138500Y0111000D03*
X0138500Y0121000D03*
X0138500Y0101000D03*
X0138500Y0091000D03*
X0138500Y0081000D03*
X0138500Y0071000D03*
X0138500Y0061000D03*
X0138500Y0051000D03*
X0138500Y0041000D03*
X0183500Y0041000D03*
X0183500Y0051000D03*
X0183500Y0061000D03*
X0183500Y0071000D03*
X0183500Y0081000D03*
X0183500Y0091000D03*
X0183500Y0101000D03*
X0183500Y0111000D03*
X0183500Y0121000D03*
D18*
X0183558Y0121540D01*
X0185965Y0123947D01*
X0185965Y0187735D01*
X0181151Y0192549D01*
X0181151Y0215417D01*
X0181000Y0216000D01*
X0185965Y0214213D02*
X0185965Y0217824D01*
X0173930Y0229859D01*
X0166709Y0229859D01*
X0166000Y0231000D01*
X0164302Y0235877D02*
X0160691Y0232266D01*
X0160691Y0222638D01*
X0155877Y0217824D01*
X0155877Y0206992D01*
X0151063Y0215417D02*
X0151000Y0216000D01*
X0151063Y0215417D02*
X0151063Y0192549D01*
X0155877Y0187735D01*
X0155877Y0150425D01*
X0176337Y0129965D01*
X0176337Y0067381D01*
X0182355Y0061363D01*
X0183500Y0061000D01*
X0188372Y0066177D02*
X0183558Y0070991D01*
X0183500Y0071000D01*
X0183558Y0072195D01*
X0193187Y0081823D01*
X0193187Y0133576D01*
X0208833Y0149222D01*
X0211240Y0149222D01*
X0217257Y0155239D01*
X0220868Y0155239D01*
X0221000Y0156000D01*
X0225682Y0158850D02*
X0223275Y0161257D01*
X0208833Y0161257D01*
X0206426Y0158850D01*
X0206426Y0154036D01*
X0202815Y0150425D01*
X0195594Y0150425D01*
X0190780Y0155239D02*
X0191000Y0156000D01*
X0190780Y0155239D02*
X0190780Y0119133D01*
X0183558Y0111912D01*
X0183500Y0111000D01*
X0178744Y0104691D02*
X0182355Y0101080D01*
X0183500Y0101000D01*
X0178744Y0104691D02*
X0178744Y0122744D01*
X0179948Y0123947D01*
X0179948Y0155239D01*
X0181000Y0156000D01*
X0200408Y0132372D02*
X0210036Y0142000D01*
X0211000Y0141000D01*
X0221000Y0141000D02*
X0222072Y0142000D01*
X0225682Y0145611D01*
X0225682Y0158850D01*
X0229293Y0161257D02*
X0190780Y0199770D01*
X0190780Y0209399D01*
X0185965Y0214213D01*
X0176337Y0231063D02*
X0171523Y0235877D01*
X0164302Y0235877D01*
X0156000Y0231000D02*
X0155877Y0229859D01*
X0145045Y0229859D01*
X0140231Y0225045D01*
X0146248Y0219027D01*
X0146248Y0200974D01*
X0148656Y0198567D01*
X0148656Y0190142D01*
X0146248Y0187735D01*
X0146248Y0139593D01*
X0130602Y0123947D01*
X0130602Y0089044D01*
X0137824Y0081823D01*
X0138500Y0081000D01*
X0139027Y0080620D01*
X0139027Y0077009D01*
X0143841Y0072195D01*
X0143841Y0069788D01*
X0140231Y0066177D01*
X0113753Y0066177D01*
X0108939Y0070991D01*
X0108500Y0071000D01*
X0113753Y0066177D02*
X0113753Y0026460D01*
X0099310Y0012018D01*
X0096903Y0012018D01*
X0096000Y0011000D01*
X0099310Y0015628D02*
X0092089Y0015628D01*
X0088478Y0019239D01*
X0088478Y0096266D01*
X0092089Y0105894D02*
X0071629Y0085434D01*
X0071629Y0058956D01*
X0064407Y0051735D01*
X0063500Y0051000D01*
X0058390Y0046920D02*
X0063204Y0042106D01*
X0063500Y0041000D01*
X0058390Y0046920D02*
X0058390Y0062567D01*
X0062000Y0066177D01*
X0065611Y0066177D01*
X0069222Y0069788D01*
X0069222Y0092655D01*
X0065611Y0096266D01*
X0060797Y0096266D01*
X0058390Y0098673D01*
X0058390Y0103487D01*
X0060797Y0105894D01*
X0065611Y0105894D01*
X0069222Y0109505D01*
X0069222Y0113115D01*
X0092089Y0135983D01*
X0100514Y0135983D01*
X0116160Y0151629D01*
X0116160Y0190142D01*
X0130602Y0204585D01*
X0130602Y0215417D01*
X0131000Y0216000D01*
X0134213Y0222638D02*
X0126992Y0229859D01*
X0126000Y0231000D01*
X0125788Y0229859D01*
X0118567Y0222638D01*
X0098107Y0222638D01*
X0090885Y0229859D01*
X0086071Y0229859D01*
X0086000Y0231000D01*
X0081257Y0232266D02*
X0084868Y0235877D01*
X0090885Y0235877D01*
X0095700Y0231063D01*
X0096000Y0231000D01*
X0096903Y0231063D01*
X0114956Y0231063D01*
X0116000Y0231000D01*
X0134213Y0222638D02*
X0137824Y0222638D01*
X0140231Y0225045D01*
X0145045Y0196160D02*
X0128195Y0196160D01*
X0113753Y0196160D02*
X0095700Y0214213D01*
X0095700Y0217824D01*
X0087275Y0226248D01*
X0083664Y0226248D01*
X0081257Y0228656D01*
X0081257Y0232266D01*
X0072832Y0210602D02*
X0029505Y0210602D01*
X0025894Y0214213D01*
X0025894Y0217824D01*
X0013859Y0229859D01*
X0011452Y0229859D01*
X0011000Y0231000D01*
X0029505Y0170885D02*
X0106531Y0170885D01*
X0112549Y0176903D01*
X0101717Y0181717D02*
X0072832Y0210602D01*
X0029505Y0170885D02*
X0015062Y0156443D01*
X0011452Y0156443D01*
X0011000Y0156000D01*
X0023487Y0149222D02*
X0016266Y0142000D01*
X0016000Y0141000D01*
X0023487Y0149222D02*
X0081257Y0149222D01*
X0087275Y0155239D01*
X0090885Y0155239D01*
X0091000Y0156000D01*
X0096903Y0155239D02*
X0089682Y0148018D01*
X0083664Y0148018D01*
X0077646Y0142000D01*
X0036726Y0142000D01*
X0036000Y0141000D01*
X0063500Y0101000D02*
X0064407Y0101080D01*
X0089682Y0126354D01*
X0101717Y0126354D01*
X0130602Y0155239D01*
X0131000Y0156000D01*
X0131806Y0145611D02*
X0139027Y0138390D01*
X0140231Y0126354D02*
X0136620Y0126354D01*
X0133009Y0122744D01*
X0133009Y0105894D01*
X0137824Y0101080D01*
X0138500Y0101000D01*
X0143841Y0093859D02*
X0143841Y0115522D01*
X0139027Y0120337D01*
X0138500Y0121000D01*
X0140231Y0126354D02*
X0149859Y0116726D01*
X0159487Y0116726D01*
X0163098Y0113115D01*
X0163098Y0067381D01*
X0157080Y0061363D01*
X0156000Y0061000D01*
X0155877Y0051735D02*
X0156000Y0051000D01*
X0155877Y0051735D02*
X0146248Y0061363D01*
X0146248Y0083027D01*
X0139027Y0090248D01*
X0138500Y0091000D01*
X0143841Y0093859D02*
X0155877Y0081823D01*
X0156000Y0081000D01*
X0138500Y0071000D02*
X0137824Y0072195D01*
X0129399Y0080620D01*
X0108939Y0080620D01*
X0108500Y0081000D01*
X0102921Y0085434D02*
X0107735Y0090248D01*
X0108500Y0091000D01*
X0102921Y0089044D02*
X0102921Y0102283D01*
X0106531Y0105894D01*
X0110142Y0105894D01*
X0113753Y0109505D01*
X0113753Y0115522D01*
X0108939Y0120337D01*
X0108500Y0121000D01*
X0102921Y0123947D02*
X0102921Y0108301D01*
X0100514Y0105894D01*
X0092089Y0105894D01*
X0102921Y0089044D02*
X0100514Y0086637D01*
X0100514Y0085434D01*
X0096903Y0081823D01*
X0096000Y0081000D01*
X0102921Y0085434D02*
X0102921Y0057752D01*
X0096903Y0051735D01*
X0096000Y0051000D01*
X0102921Y0048124D02*
X0102921Y0054142D01*
X0108939Y0060159D01*
X0108500Y0061000D01*
X0108500Y0051000D02*
X0108939Y0050531D01*
X0102921Y0044513D01*
X0102921Y0037292D01*
X0096903Y0031274D01*
X0096000Y0031000D01*
X0102921Y0033681D02*
X0102921Y0027664D01*
X0096903Y0021646D01*
X0096000Y0021000D01*
X0099310Y0015628D02*
X0107735Y0024053D01*
X0107735Y0030071D01*
X0108500Y0031000D01*
X0102921Y0033681D02*
X0107735Y0038496D01*
X0107735Y0040903D01*
X0108500Y0041000D01*
X0102921Y0048124D02*
X0096903Y0042106D01*
X0096000Y0041000D01*
X0081257Y0006000D02*
X0167912Y0006000D01*
X0188372Y0026460D01*
X0188372Y0066177D01*
X0189576Y0072195D02*
X0200408Y0072195D01*
X0200408Y0034885D01*
X0183558Y0018035D01*
X0183558Y0015628D01*
X0155877Y0012018D02*
X0156000Y0011000D01*
X0155877Y0012018D02*
X0137824Y0030071D01*
X0138500Y0031000D01*
X0143841Y0033681D02*
X0143841Y0036089D01*
X0139027Y0040903D01*
X0138500Y0041000D01*
X0139027Y0048124D02*
X0139027Y0050531D01*
X0138500Y0051000D01*
X0139027Y0048124D02*
X0155877Y0031274D01*
X0156000Y0031000D01*
X0155877Y0021646D02*
X0156000Y0021000D01*
X0155877Y0021646D02*
X0143841Y0033681D01*
X0156000Y0041000D02*
X0155877Y0042106D01*
X0137824Y0060159D01*
X0138500Y0061000D01*
X0102921Y0123947D02*
X0108939Y0129965D01*
X0122178Y0129965D01*
X0100514Y0155239D02*
X0101000Y0156000D01*
X0100514Y0155239D02*
X0096903Y0155239D01*
X0063500Y0081000D02*
X0063204Y0080620D01*
X0063204Y0078213D01*
X0055983Y0070991D01*
X0055983Y0031274D01*
X0081257Y0006000D01*
X0200408Y0072195D02*
X0200408Y0132372D01*
X0229293Y0161257D02*
X0232904Y0161257D01*
X0237718Y0156443D01*
X0240125Y0156443D01*
X0241000Y0156000D01*
X0241328Y0155239D01*
X0241328Y0142000D01*
X0241000Y0141000D01*
X0241000Y0231000D02*
X0240125Y0231063D01*
X0176337Y0231063D01*
D19*
X0155877Y0206992D03*
X0145045Y0196160D03*
X0128195Y0196160D03*
X0113753Y0196160D03*
X0101717Y0181717D03*
X0112549Y0176903D03*
X0131806Y0145611D03*
X0139027Y0138390D03*
X0122178Y0129965D03*
X0088478Y0096266D03*
X0183558Y0015628D03*
X0189576Y0072195D03*
X0195594Y0150425D03*
M02*
