G75*
%MOIN*%
%OFA0B0*%
%FSLAX25Y25*%
%IPPOS*%
%LPD*%
%AMOC8*
5,1,8,0,0,1.08239X$1,22.5*
%
%ADD10OC8,0.06800*%
%ADD11OC8,0.06000*%
%ADD12C,0.06800*%
%ADD13C,0.13800*%
%ADD14C,0.06000*%
%ADD15C,0.06600*%
%ADD16R,0.06737X0.06737*%
%ADD17C,0.06737*%
%ADD18C,0.04800*%
D10*
X0011000Y0231000D03*
X0241000Y0231000D03*
D11*
X0166000Y0231000D03*
X0156000Y0231000D03*
X0096000Y0231000D03*
X0086000Y0231000D03*
D12*
X0116000Y0228000D02*
X0116000Y0234000D01*
X0126000Y0234000D02*
X0126000Y0228000D01*
X0136000Y0228000D02*
X0136000Y0234000D01*
X0211000Y0144000D02*
X0211000Y0138000D01*
X0221000Y0138000D02*
X0221000Y0144000D01*
X0231000Y0144000D02*
X0231000Y0138000D01*
X0241000Y0138000D02*
X0241000Y0144000D01*
X0036000Y0144000D02*
X0036000Y0138000D01*
X0026000Y0138000D02*
X0026000Y0144000D01*
X0016000Y0144000D02*
X0016000Y0138000D01*
D13*
X0126000Y0290000D03*
D14*
X0098600Y0141000D02*
X0093400Y0141000D01*
X0093400Y0131000D02*
X0098600Y0131000D01*
X0098600Y0121000D02*
X0093400Y0121000D01*
X0093400Y0111000D02*
X0098600Y0111000D01*
X0098600Y0101000D02*
X0093400Y0101000D01*
X0093400Y0091000D02*
X0098600Y0091000D01*
X0098600Y0081000D02*
X0093400Y0081000D01*
X0093400Y0071000D02*
X0098600Y0071000D01*
X0098600Y0061000D02*
X0093400Y0061000D01*
X0093400Y0051000D02*
X0098600Y0051000D01*
X0098600Y0041000D02*
X0093400Y0041000D01*
X0093400Y0031000D02*
X0098600Y0031000D01*
X0098600Y0021000D02*
X0093400Y0021000D01*
X0093400Y0011000D02*
X0098600Y0011000D01*
X0153400Y0011000D02*
X0158600Y0011000D01*
X0158600Y0021000D02*
X0153400Y0021000D01*
X0153400Y0031000D02*
X0158600Y0031000D01*
X0158600Y0041000D02*
X0153400Y0041000D01*
X0153400Y0051000D02*
X0158600Y0051000D01*
X0158600Y0061000D02*
X0153400Y0061000D01*
X0153400Y0071000D02*
X0158600Y0071000D01*
X0158600Y0081000D02*
X0153400Y0081000D01*
X0153400Y0091000D02*
X0158600Y0091000D01*
X0158600Y0101000D02*
X0153400Y0101000D01*
X0153400Y0111000D02*
X0158600Y0111000D01*
X0158600Y0121000D02*
X0153400Y0121000D01*
X0153400Y0131000D02*
X0158600Y0131000D01*
X0158600Y0141000D02*
X0153400Y0141000D01*
D15*
X0151000Y0156000D03*
X0141000Y0156000D03*
X0131000Y0156000D03*
X0121000Y0156000D03*
X0111000Y0156000D03*
X0101000Y0156000D03*
X0091000Y0156000D03*
X0081000Y0156000D03*
X0071000Y0156000D03*
X0061000Y0156000D03*
X0061000Y0166000D03*
X0061000Y0176000D03*
X0061000Y0186000D03*
X0061000Y0196000D03*
X0061000Y0206000D03*
X0061000Y0216000D03*
X0051000Y0216000D03*
X0041000Y0216000D03*
X0031000Y0216000D03*
X0021000Y0216000D03*
X0011000Y0216000D03*
X0011000Y0186000D03*
X0011000Y0176000D03*
X0021000Y0176000D03*
X0021000Y0186000D03*
X0031000Y0186000D03*
X0031000Y0176000D03*
X0041000Y0176000D03*
X0041000Y0186000D03*
X0051000Y0186000D03*
X0051000Y0176000D03*
X0051000Y0156000D03*
X0041000Y0156000D03*
X0031000Y0156000D03*
X0021000Y0156000D03*
X0011000Y0156000D03*
X0071000Y0176000D03*
X0071000Y0186000D03*
X0081000Y0186000D03*
X0081000Y0176000D03*
X0091000Y0176000D03*
X0091000Y0186000D03*
X0091000Y0216000D03*
X0081000Y0216000D03*
X0071000Y0216000D03*
X0101000Y0216000D03*
X0111000Y0216000D03*
X0121000Y0216000D03*
X0131000Y0216000D03*
X0141000Y0216000D03*
X0151000Y0216000D03*
X0161000Y0216000D03*
X0171000Y0216000D03*
X0181000Y0216000D03*
X0191000Y0216000D03*
X0201000Y0216000D03*
X0211000Y0216000D03*
X0221000Y0216000D03*
X0231000Y0216000D03*
X0241000Y0216000D03*
X0216000Y0203900D03*
X0206000Y0203900D03*
X0196000Y0203900D03*
X0186000Y0203900D03*
X0176000Y0203900D03*
X0171000Y0186000D03*
X0171000Y0176000D03*
X0181000Y0176000D03*
X0181000Y0186000D03*
X0161000Y0186000D03*
X0161000Y0176000D03*
X0151000Y0176000D03*
X0151000Y0186000D03*
X0161000Y0156000D03*
X0171000Y0156000D03*
X0181000Y0156000D03*
X0191000Y0156000D03*
X0191000Y0166000D03*
X0201000Y0166000D03*
X0201000Y0156000D03*
X0211000Y0156000D03*
X0211000Y0166000D03*
X0221000Y0156000D03*
X0231000Y0156000D03*
X0231000Y0166000D03*
X0241000Y0156000D03*
D16*
X0183500Y0031000D03*
X0138500Y0031000D03*
X0108500Y0121000D03*
X0063500Y0121000D03*
D17*
X0063500Y0031000D03*
X0063500Y0041000D03*
X0063500Y0051000D03*
X0063500Y0061000D03*
X0063500Y0071000D03*
X0063500Y0081000D03*
X0063500Y0091000D03*
X0063500Y0101000D03*
X0063500Y0111000D03*
X0108500Y0111000D03*
X0108500Y0101000D03*
X0108500Y0091000D03*
X0108500Y0081000D03*
X0108500Y0071000D03*
X0108500Y0061000D03*
X0108500Y0051000D03*
X0108500Y0041000D03*
X0108500Y0031000D03*
X0138500Y0041000D03*
X0138500Y0051000D03*
X0138500Y0061000D03*
X0138500Y0071000D03*
X0138500Y0081000D03*
X0138500Y0091000D03*
X0138500Y0101000D03*
X0138500Y0111000D03*
X0138500Y0121000D03*
X0183500Y0121000D03*
X0183500Y0111000D03*
X0183500Y0101000D03*
X0183500Y0091000D03*
X0183500Y0081000D03*
X0183500Y0071000D03*
X0183500Y0061000D03*
X0183500Y0051000D03*
X0183500Y0041000D03*
D18*
X0183558Y0015628D03*
X0189576Y0072195D03*
X0139027Y0138390D03*
X0131806Y0145611D03*
X0122178Y0129965D03*
X0088478Y0096266D03*
X0112549Y0176903D03*
X0101717Y0181717D03*
X0113753Y0196160D03*
X0128195Y0196160D03*
X0145045Y0196160D03*
X0155877Y0206992D03*
X0195594Y0150425D03*
M02*
